<mxfile host="app.diagrams.net" agent="Mozilla/5.0 (Windows NT 10.0; Win64; x64) AppleWebKit/537.36 (KHTML, like Gecko) Chrome/138.0.0.0 Safari/537.36" version="28.0.6">
  <diagram name="Page-1" id="Uhk__FmBdZw9sO9f1GB5">
    <mxGraphModel dx="3898" dy="597" grid="1" gridSize="10" guides="1" tooltips="1" connect="1" arrows="1" fold="1" page="1" pageScale="1" pageWidth="850" pageHeight="1100" math="0" shadow="0">
      <root>
        <mxCell id="0" />
        <mxCell id="1" parent="0" />
        <mxCell id="bFm6iSJfwCPPKSR6vB3Z-1" value="" style="ellipse;html=1;shape=startState;fillColor=#000000;strokeColor=#ff0000;" parent="1" vertex="1">
          <mxGeometry x="180" y="60" width="30" height="30" as="geometry" />
        </mxCell>
        <mxCell id="bFm6iSJfwCPPKSR6vB3Z-2" value="" style="edgeStyle=orthogonalEdgeStyle;html=1;verticalAlign=bottom;endArrow=open;endSize=8;strokeColor=#ff0000;rounded=0;entryX=0.5;entryY=0;entryDx=0;entryDy=0;" parent="1" source="bFm6iSJfwCPPKSR6vB3Z-1" target="bFm6iSJfwCPPKSR6vB3Z-5" edge="1">
          <mxGeometry relative="1" as="geometry">
            <mxPoint x="195" y="150" as="targetPoint" />
          </mxGeometry>
        </mxCell>
        <mxCell id="bFm6iSJfwCPPKSR6vB3Z-4" style="rounded=0;orthogonalLoop=1;jettySize=auto;html=1;entryX=0;entryY=0.5;entryDx=0;entryDy=0;" parent="1" source="bFm6iSJfwCPPKSR6vB3Z-3" target="bFm6iSJfwCPPKSR6vB3Z-1" edge="1">
          <mxGeometry relative="1" as="geometry" />
        </mxCell>
        <mxCell id="bFm6iSJfwCPPKSR6vB3Z-3" value="&lt;div&gt;&lt;span style=&quot;background-color: transparent; color: light-dark(rgb(0, 0, 0), rgb(255, 255, 255));&quot;&gt;User opened Meal Plan Entries&lt;/span&gt;&lt;/div&gt;" style="shape=note2;boundedLbl=1;whiteSpace=wrap;html=1;size=25;verticalAlign=top;align=center;" parent="1" vertex="1">
          <mxGeometry x="-120" y="37.5" width="120" height="75" as="geometry" />
        </mxCell>
        <mxCell id="bFm6iSJfwCPPKSR6vB3Z-5" value="console display options" style="rounded=1;whiteSpace=wrap;html=1;arcSize=40;fontColor=#000000;fillColor=#ffffc0;strokeColor=#ff0000;" parent="1" vertex="1">
          <mxGeometry x="135" y="150" width="120" height="40" as="geometry" />
        </mxCell>
        <mxCell id="bFm6iSJfwCPPKSR6vB3Z-6" value="" style="html=1;verticalAlign=bottom;endArrow=open;endSize=8;strokeColor=#ff0000;rounded=0;entryX=0.164;entryY=0.333;entryDx=0;entryDy=0;entryPerimeter=0;" parent="1" source="bFm6iSJfwCPPKSR6vB3Z-5" target="bFm6iSJfwCPPKSR6vB3Z-10" edge="1">
          <mxGeometry relative="1" as="geometry">
            <mxPoint x="195" y="250" as="targetPoint" />
          </mxGeometry>
        </mxCell>
        <mxCell id="bFm6iSJfwCPPKSR6vB3Z-10" value="" style="shape=line;html=1;strokeWidth=6;strokeColor=#ff0000;" parent="1" vertex="1">
          <mxGeometry x="-500" y="250" width="4230" height="10" as="geometry" />
        </mxCell>
        <mxCell id="bFm6iSJfwCPPKSR6vB3Z-12" value="" style="html=1;verticalAlign=bottom;endArrow=open;endSize=8;strokeColor=#ff0000;rounded=0;entryX=0.5;entryY=0;entryDx=0;entryDy=0;exitX=0.101;exitY=1.044;exitDx=0;exitDy=0;exitPerimeter=0;" parent="1" source="bFm6iSJfwCPPKSR6vB3Z-10" target="bFm6iSJfwCPPKSR6vB3Z-111" edge="1">
          <mxGeometry relative="1" as="geometry">
            <mxPoint x="60" y="420" as="targetPoint" />
            <mxPoint x="-225" y="260" as="sourcePoint" />
          </mxGeometry>
        </mxCell>
        <mxCell id="bFm6iSJfwCPPKSR6vB3Z-13" value="" style="html=1;verticalAlign=bottom;endArrow=open;endSize=8;strokeColor=#ff0000;rounded=0;exitX=0.238;exitY=0.511;exitDx=0;exitDy=0;exitPerimeter=0;" parent="1" source="bFm6iSJfwCPPKSR6vB3Z-10" target="bFm6iSJfwCPPKSR6vB3Z-168" edge="1">
          <mxGeometry relative="1" as="geometry">
            <mxPoint x="530" y="332" as="targetPoint" />
            <mxPoint x="530" y="260" as="sourcePoint" />
          </mxGeometry>
        </mxCell>
        <mxCell id="bFm6iSJfwCPPKSR6vB3Z-14" value="" style="html=1;verticalAlign=bottom;endArrow=open;endSize=8;strokeColor=#ff0000;rounded=0;exitX=0.079;exitY=0.831;exitDx=0;exitDy=0;exitPerimeter=0;" parent="1" target="bFm6iSJfwCPPKSR6vB3Z-174" edge="1">
          <mxGeometry relative="1" as="geometry">
            <mxPoint x="690" y="332" as="targetPoint" />
            <mxPoint x="690" y="260" as="sourcePoint" />
          </mxGeometry>
        </mxCell>
        <mxCell id="bFm6iSJfwCPPKSR6vB3Z-15" value="" style="html=1;verticalAlign=bottom;endArrow=open;endSize=8;strokeColor=#ff0000;rounded=0;exitX=0.079;exitY=0.831;exitDx=0;exitDy=0;exitPerimeter=0;entryX=0.5;entryY=0;entryDx=0;entryDy=0;" parent="1" target="bFm6iSJfwCPPKSR6vB3Z-180" edge="1">
          <mxGeometry relative="1" as="geometry">
            <mxPoint x="1090" y="332" as="targetPoint" />
            <mxPoint x="1090" y="260" as="sourcePoint" />
          </mxGeometry>
        </mxCell>
        <mxCell id="bFm6iSJfwCPPKSR6vB3Z-16" value="" style="html=1;verticalAlign=bottom;endArrow=open;endSize=8;strokeColor=#ff0000;rounded=0;exitX=0.079;exitY=0.831;exitDx=0;exitDy=0;exitPerimeter=0;entryX=0.5;entryY=0;entryDx=0;entryDy=0;" parent="1" target="bFm6iSJfwCPPKSR6vB3Z-186" edge="1">
          <mxGeometry relative="1" as="geometry">
            <mxPoint x="1400" y="332" as="targetPoint" />
            <mxPoint x="1400" y="260" as="sourcePoint" />
          </mxGeometry>
        </mxCell>
        <mxCell id="bFm6iSJfwCPPKSR6vB3Z-17" value="" style="html=1;verticalAlign=bottom;endArrow=open;endSize=8;strokeColor=#ff0000;rounded=0;exitX=0.079;exitY=0.831;exitDx=0;exitDy=0;exitPerimeter=0;entryX=0.5;entryY=0;entryDx=0;entryDy=0;" parent="1" target="bFm6iSJfwCPPKSR6vB3Z-192" edge="1">
          <mxGeometry relative="1" as="geometry">
            <mxPoint x="1870" y="510" as="targetPoint" />
            <mxPoint x="1870" y="260" as="sourcePoint" />
          </mxGeometry>
        </mxCell>
        <mxCell id="bFm6iSJfwCPPKSR6vB3Z-18" value="" style="html=1;verticalAlign=bottom;endArrow=open;endSize=8;strokeColor=#ff0000;rounded=0;exitX=0.985;exitY=1.08;exitDx=0;exitDy=0;exitPerimeter=0;entryX=0.5;entryY=0;entryDx=0;entryDy=0;" parent="1" source="bFm6iSJfwCPPKSR6vB3Z-10" target="bFm6iSJfwCPPKSR6vB3Z-234" edge="1">
          <mxGeometry relative="1" as="geometry">
            <mxPoint x="3380" y="3006.6666666666665" as="targetPoint" />
            <mxPoint x="3670" y="310" as="sourcePoint" />
          </mxGeometry>
        </mxCell>
        <mxCell id="bFm6iSJfwCPPKSR6vB3Z-104" value="" style="shape=line;html=1;strokeWidth=6;strokeColor=#ff0000;" parent="1" vertex="1">
          <mxGeometry x="-400" y="2660" width="1750" height="10" as="geometry" />
        </mxCell>
        <mxCell id="bFm6iSJfwCPPKSR6vB3Z-105" value="" style="edgeStyle=orthogonalEdgeStyle;html=1;verticalAlign=bottom;endArrow=open;endSize=8;strokeColor=#ff0000;rounded=0;entryX=0;entryY=0.5;entryDx=0;entryDy=0;entryPerimeter=0;" parent="1" source="bFm6iSJfwCPPKSR6vB3Z-104" target="bFm6iSJfwCPPKSR6vB3Z-10" edge="1">
          <mxGeometry relative="1" as="geometry">
            <mxPoint x="-320" y="2370" as="targetPoint" />
            <Array as="points">
              <mxPoint x="-2250" y="2665" />
              <mxPoint x="-2250" y="255" />
            </Array>
          </mxGeometry>
        </mxCell>
        <mxCell id="bFm6iSJfwCPPKSR6vB3Z-111" value="User select to edit meals (5)" style="rounded=1;whiteSpace=wrap;html=1;arcSize=40;fontColor=#000000;fillColor=#ffffc0;strokeColor=#ff0000;" parent="1" vertex="1">
          <mxGeometry x="-160" y="400" width="120" height="40" as="geometry" />
        </mxCell>
        <mxCell id="bFm6iSJfwCPPKSR6vB3Z-112" value="" style="edgeStyle=orthogonalEdgeStyle;html=1;verticalAlign=bottom;endArrow=open;endSize=8;strokeColor=#ff0000;rounded=0;" parent="1" source="bFm6iSJfwCPPKSR6vB3Z-111" edge="1">
          <mxGeometry relative="1" as="geometry">
            <mxPoint x="-100" y="500" as="targetPoint" />
          </mxGeometry>
        </mxCell>
        <mxCell id="bFm6iSJfwCPPKSR6vB3Z-113" value="Console display options to edit values" style="rounded=1;whiteSpace=wrap;html=1;arcSize=40;fontColor=#000000;fillColor=#ffffc0;strokeColor=#ff0000;" parent="1" vertex="1">
          <mxGeometry x="-160" y="500" width="120" height="40" as="geometry" />
        </mxCell>
        <mxCell id="bFm6iSJfwCPPKSR6vB3Z-114" value="" style="edgeStyle=orthogonalEdgeStyle;html=1;verticalAlign=bottom;endArrow=open;endSize=8;strokeColor=#ff0000;rounded=0;" parent="1" source="bFm6iSJfwCPPKSR6vB3Z-113" edge="1">
          <mxGeometry relative="1" as="geometry">
            <mxPoint x="-100" y="600" as="targetPoint" />
          </mxGeometry>
        </mxCell>
        <mxCell id="bFm6iSJfwCPPKSR6vB3Z-115" value="" style="shape=line;html=1;strokeWidth=6;strokeColor=#ff0000;" parent="1" vertex="1">
          <mxGeometry x="-200" y="600" width="200" height="10" as="geometry" />
        </mxCell>
        <mxCell id="bFm6iSJfwCPPKSR6vB3Z-144" value="" style="group" parent="1" vertex="1" connectable="0">
          <mxGeometry x="-745" y="380" width="120" height="540" as="geometry" />
        </mxCell>
        <mxCell id="bFm6iSJfwCPPKSR6vB3Z-11" value="" style="html=1;verticalAlign=bottom;endArrow=open;endSize=8;strokeColor=#ff0000;rounded=0;exitX=0.032;exitY=0.867;exitDx=0;exitDy=0;exitPerimeter=0;entryX=0.5;entryY=0;entryDx=0;entryDy=0;" parent="bFm6iSJfwCPPKSR6vB3Z-144" source="bFm6iSJfwCPPKSR6vB3Z-10" target="bFm6iSJfwCPPKSR6vB3Z-19" edge="1">
          <mxGeometry relative="1" as="geometry">
            <mxPoint x="351" y="-30" as="targetPoint" />
          </mxGeometry>
        </mxCell>
        <mxCell id="bFm6iSJfwCPPKSR6vB3Z-19" value="User select to add meals (1)" style="rounded=1;whiteSpace=wrap;html=1;arcSize=40;fontColor=#000000;fillColor=#ffffc0;strokeColor=#ff0000;" parent="bFm6iSJfwCPPKSR6vB3Z-144" vertex="1">
          <mxGeometry width="120" height="40" as="geometry" />
        </mxCell>
        <mxCell id="bFm6iSJfwCPPKSR6vB3Z-20" value="" style="edgeStyle=orthogonalEdgeStyle;html=1;verticalAlign=bottom;endArrow=open;endSize=8;strokeColor=#ff0000;rounded=0;entryX=0.5;entryY=0;entryDx=0;entryDy=0;" parent="bFm6iSJfwCPPKSR6vB3Z-144" source="bFm6iSJfwCPPKSR6vB3Z-19" target="bFm6iSJfwCPPKSR6vB3Z-21" edge="1">
          <mxGeometry relative="1" as="geometry">
            <mxPoint x="60" y="100" as="targetPoint" />
          </mxGeometry>
        </mxCell>
        <mxCell id="bFm6iSJfwCPPKSR6vB3Z-21" value="User enter the name" style="rounded=1;whiteSpace=wrap;html=1;arcSize=40;fontColor=#000000;fillColor=#ffffc0;strokeColor=#ff0000;" parent="bFm6iSJfwCPPKSR6vB3Z-144" vertex="1">
          <mxGeometry y="100" width="120" height="40" as="geometry" />
        </mxCell>
        <mxCell id="bFm6iSJfwCPPKSR6vB3Z-22" value="" style="edgeStyle=orthogonalEdgeStyle;html=1;verticalAlign=bottom;endArrow=open;endSize=8;strokeColor=#ff0000;rounded=0;entryX=0.5;entryY=0;entryDx=0;entryDy=0;" parent="bFm6iSJfwCPPKSR6vB3Z-144" source="bFm6iSJfwCPPKSR6vB3Z-21" target="bFm6iSJfwCPPKSR6vB3Z-36" edge="1">
          <mxGeometry relative="1" as="geometry">
            <mxPoint x="60" y="200" as="targetPoint" />
          </mxGeometry>
        </mxCell>
        <mxCell id="bFm6iSJfwCPPKSR6vB3Z-35" value="" style="edgeStyle=orthogonalEdgeStyle;html=1;verticalAlign=bottom;endArrow=open;endSize=8;strokeColor=#ff0000;rounded=0;entryX=0.5;entryY=0;entryDx=0;entryDy=0;" parent="bFm6iSJfwCPPKSR6vB3Z-144" source="bFm6iSJfwCPPKSR6vB3Z-36" target="bFm6iSJfwCPPKSR6vB3Z-37" edge="1">
          <mxGeometry relative="1" as="geometry">
            <mxPoint x="60" y="300" as="targetPoint" />
          </mxGeometry>
        </mxCell>
        <mxCell id="bFm6iSJfwCPPKSR6vB3Z-36" value="User enter description" style="rounded=1;whiteSpace=wrap;html=1;arcSize=40;fontColor=#000000;fillColor=#ffffc0;strokeColor=#ff0000;" parent="bFm6iSJfwCPPKSR6vB3Z-144" vertex="1">
          <mxGeometry y="200" width="120" height="40" as="geometry" />
        </mxCell>
        <mxCell id="bFm6iSJfwCPPKSR6vB3Z-37" value="User enter Time of Day" style="rounded=1;whiteSpace=wrap;html=1;arcSize=40;fontColor=#000000;fillColor=#ffffc0;strokeColor=#ff0000;" parent="bFm6iSJfwCPPKSR6vB3Z-144" vertex="1">
          <mxGeometry y="300" width="120" height="40" as="geometry" />
        </mxCell>
        <mxCell id="bFm6iSJfwCPPKSR6vB3Z-38" value="" style="edgeStyle=orthogonalEdgeStyle;html=1;verticalAlign=bottom;endArrow=open;endSize=8;strokeColor=#ff0000;rounded=0;entryX=0.5;entryY=0;entryDx=0;entryDy=0;" parent="bFm6iSJfwCPPKSR6vB3Z-144" source="bFm6iSJfwCPPKSR6vB3Z-37" target="bFm6iSJfwCPPKSR6vB3Z-41" edge="1">
          <mxGeometry relative="1" as="geometry">
            <mxPoint x="60" y="400" as="targetPoint" />
          </mxGeometry>
        </mxCell>
        <mxCell id="bFm6iSJfwCPPKSR6vB3Z-41" value="User enter date" style="rounded=1;whiteSpace=wrap;html=1;arcSize=40;fontColor=#000000;fillColor=#ffffc0;strokeColor=#ff0000;" parent="bFm6iSJfwCPPKSR6vB3Z-144" vertex="1">
          <mxGeometry y="400" width="120" height="40" as="geometry" />
        </mxCell>
        <mxCell id="bFm6iSJfwCPPKSR6vB3Z-42" value="" style="edgeStyle=orthogonalEdgeStyle;html=1;verticalAlign=bottom;endArrow=open;endSize=8;strokeColor=#ff0000;rounded=0;entryX=0.5;entryY=0;entryDx=0;entryDy=0;" parent="bFm6iSJfwCPPKSR6vB3Z-144" source="bFm6iSJfwCPPKSR6vB3Z-41" target="bFm6iSJfwCPPKSR6vB3Z-43" edge="1">
          <mxGeometry relative="1" as="geometry">
            <mxPoint x="60" y="500" as="targetPoint" />
          </mxGeometry>
        </mxCell>
        <mxCell id="bFm6iSJfwCPPKSR6vB3Z-43" value="User enter time" style="rounded=1;whiteSpace=wrap;html=1;arcSize=40;fontColor=#000000;fillColor=#ffffc0;strokeColor=#ff0000;" parent="bFm6iSJfwCPPKSR6vB3Z-144" vertex="1">
          <mxGeometry y="500" width="120" height="40" as="geometry" />
        </mxCell>
        <mxCell id="bFm6iSJfwCPPKSR6vB3Z-145" value="" style="group" parent="1" vertex="1" connectable="0">
          <mxGeometry x="-425" y="609.9999999999999" width="255" height="230.0000000000001" as="geometry" />
        </mxCell>
        <mxCell id="bFm6iSJfwCPPKSR6vB3Z-143" value="" style="group" parent="bFm6iSJfwCPPKSR6vB3Z-145" vertex="1" connectable="0">
          <mxGeometry width="255" height="230.0000000000001" as="geometry" />
        </mxCell>
        <mxCell id="bFm6iSJfwCPPKSR6vB3Z-116" value="" style="html=1;verticalAlign=bottom;endArrow=open;endSize=8;strokeColor=#ff0000;rounded=0;entryX=0.5;entryY=0;entryDx=0;entryDy=0;" parent="bFm6iSJfwCPPKSR6vB3Z-143" target="bFm6iSJfwCPPKSR6vB3Z-126" edge="1">
          <mxGeometry relative="1" as="geometry">
            <mxPoint x="65" y="180.0000000000001" as="targetPoint" />
            <mxPoint x="255" as="sourcePoint" />
          </mxGeometry>
        </mxCell>
        <mxCell id="bFm6iSJfwCPPKSR6vB3Z-126" value="User selected to edit ingredients" style="rounded=1;whiteSpace=wrap;html=1;arcSize=40;fontColor=#000000;fillColor=#ffffc0;strokeColor=#ff0000;" parent="bFm6iSJfwCPPKSR6vB3Z-143" vertex="1">
          <mxGeometry y="190.0000000000001" width="120" height="40" as="geometry" />
        </mxCell>
        <mxCell id="bFm6iSJfwCPPKSR6vB3Z-44" value="" style="edgeStyle=orthogonalEdgeStyle;html=1;verticalAlign=bottom;endArrow=open;endSize=8;strokeColor=#ff0000;rounded=0;entryX=0.5;entryY=0;entryDx=0;entryDy=0;" parent="1" source="bFm6iSJfwCPPKSR6vB3Z-43" target="bFm6iSJfwCPPKSR6vB3Z-45" edge="1">
          <mxGeometry relative="1" as="geometry">
            <mxPoint x="-685" y="980" as="targetPoint" />
          </mxGeometry>
        </mxCell>
        <mxCell id="bFm6iSJfwCPPKSR6vB3Z-127" value="" style="html=1;verticalAlign=bottom;endArrow=open;endSize=8;strokeColor=#ff0000;rounded=0;entryX=0.938;entryY=0.036;entryDx=0;entryDy=0;entryPerimeter=0;" parent="1" source="bFm6iSJfwCPPKSR6vB3Z-126" target="bFm6iSJfwCPPKSR6vB3Z-45" edge="1">
          <mxGeometry relative="1" as="geometry">
            <mxPoint x="-365" y="900" as="targetPoint" />
          </mxGeometry>
        </mxCell>
        <mxCell id="bFm6iSJfwCPPKSR6vB3Z-148" value="" style="group" parent="1" vertex="1" connectable="0">
          <mxGeometry x="-990" y="2240" width="670" height="200" as="geometry" />
        </mxCell>
        <mxCell id="bFm6iSJfwCPPKSR6vB3Z-102" value="Console informed that meal have added" style="rounded=1;whiteSpace=wrap;html=1;arcSize=40;fontColor=#000000;fillColor=#ffffc0;strokeColor=#ff0000;" parent="bFm6iSJfwCPPKSR6vB3Z-148" vertex="1">
          <mxGeometry y="160" width="120" height="40" as="geometry" />
        </mxCell>
        <mxCell id="bFm6iSJfwCPPKSR6vB3Z-103" value="" style="html=1;verticalAlign=bottom;endArrow=open;endSize=8;strokeColor=#ff0000;rounded=0;" parent="bFm6iSJfwCPPKSR6vB3Z-148" source="bFm6iSJfwCPPKSR6vB3Z-102" target="bFm6iSJfwCPPKSR6vB3Z-104" edge="1">
          <mxGeometry relative="1" as="geometry">
            <mxPoint x="60" y="260" as="targetPoint" />
          </mxGeometry>
        </mxCell>
        <mxCell id="bFm6iSJfwCPPKSR6vB3Z-122" value="" style="shape=line;html=1;strokeWidth=6;strokeColor=#ff0000;" parent="bFm6iSJfwCPPKSR6vB3Z-148" vertex="1">
          <mxGeometry x="120" width="210" height="10" as="geometry" />
        </mxCell>
        <mxCell id="bFm6iSJfwCPPKSR6vB3Z-123" value="" style="html=1;verticalAlign=bottom;endArrow=open;endSize=8;strokeColor=#ff0000;rounded=0;entryX=0.5;entryY=0;entryDx=0;entryDy=0;" parent="bFm6iSJfwCPPKSR6vB3Z-148" source="bFm6iSJfwCPPKSR6vB3Z-122" target="bFm6iSJfwCPPKSR6vB3Z-102" edge="1">
          <mxGeometry relative="1" as="geometry">
            <mxPoint x="70" y="160" as="targetPoint" />
          </mxGeometry>
        </mxCell>
        <mxCell id="bFm6iSJfwCPPKSR6vB3Z-128" value="Console informed that meal have edited" style="rounded=1;whiteSpace=wrap;html=1;arcSize=40;fontColor=#000000;fillColor=#ffffc0;strokeColor=#ff0000;" parent="bFm6iSJfwCPPKSR6vB3Z-148" vertex="1">
          <mxGeometry x="290" y="160" width="120" height="40" as="geometry" />
        </mxCell>
        <mxCell id="bFm6iSJfwCPPKSR6vB3Z-129" value="" style="html=1;verticalAlign=bottom;endArrow=open;endSize=8;strokeColor=#ff0000;rounded=0;" parent="bFm6iSJfwCPPKSR6vB3Z-148" source="bFm6iSJfwCPPKSR6vB3Z-128" target="bFm6iSJfwCPPKSR6vB3Z-104" edge="1">
          <mxGeometry relative="1" as="geometry">
            <mxPoint x="350" y="260" as="targetPoint" />
          </mxGeometry>
        </mxCell>
        <mxCell id="bFm6iSJfwCPPKSR6vB3Z-131" value="" style="html=1;verticalAlign=bottom;endArrow=open;endSize=8;strokeColor=#ff0000;rounded=0;entryX=0.5;entryY=0;entryDx=0;entryDy=0;exitX=0.5;exitY=1;exitDx=0;exitDy=0;exitPerimeter=0;" parent="bFm6iSJfwCPPKSR6vB3Z-148" source="bFm6iSJfwCPPKSR6vB3Z-122" target="bFm6iSJfwCPPKSR6vB3Z-128" edge="1">
          <mxGeometry relative="1" as="geometry">
            <mxPoint x="80" y="170" as="targetPoint" />
            <mxPoint x="235" y="20" as="sourcePoint" />
          </mxGeometry>
        </mxCell>
        <mxCell id="bFm6iSJfwCPPKSR6vB3Z-158" value="" style="group" parent="1" vertex="1" connectable="0">
          <mxGeometry x="-370" y="609.9999999999999" width="240" height="780.0000000000001" as="geometry" />
        </mxCell>
        <mxCell id="bFm6iSJfwCPPKSR6vB3Z-147" value="" style="group" parent="bFm6iSJfwCPPKSR6vB3Z-158" vertex="1" connectable="0">
          <mxGeometry width="240" height="780.0000000000001" as="geometry" />
        </mxCell>
        <mxCell id="bFm6iSJfwCPPKSR6vB3Z-117" value="" style="html=1;verticalAlign=bottom;endArrow=open;endSize=8;strokeColor=#ff0000;rounded=0;entryX=0.5;entryY=0;entryDx=0;entryDy=0;" parent="bFm6iSJfwCPPKSR6vB3Z-147" target="bFm6iSJfwCPPKSR6vB3Z-135" edge="1">
          <mxGeometry relative="1" as="geometry">
            <mxPoint x="60" y="440.0000000000001" as="targetPoint" />
            <mxPoint x="240" as="sourcePoint" />
          </mxGeometry>
        </mxCell>
        <mxCell id="bFm6iSJfwCPPKSR6vB3Z-135" value="User selected to edit name and description" style="rounded=1;whiteSpace=wrap;html=1;arcSize=40;fontColor=#000000;fillColor=#ffffc0;strokeColor=#ff0000;" parent="bFm6iSJfwCPPKSR6vB3Z-147" vertex="1">
          <mxGeometry y="440.0000000000001" width="120" height="40" as="geometry" />
        </mxCell>
        <mxCell id="bFm6iSJfwCPPKSR6vB3Z-136" value="" style="edgeStyle=orthogonalEdgeStyle;html=1;verticalAlign=bottom;endArrow=open;endSize=8;strokeColor=#ff0000;rounded=0;entryX=0.5;entryY=0;entryDx=0;entryDy=0;" parent="bFm6iSJfwCPPKSR6vB3Z-147" source="bFm6iSJfwCPPKSR6vB3Z-135" target="bFm6iSJfwCPPKSR6vB3Z-137" edge="1">
          <mxGeometry relative="1" as="geometry">
            <mxPoint x="60" y="540.0000000000001" as="targetPoint" />
          </mxGeometry>
        </mxCell>
        <mxCell id="bFm6iSJfwCPPKSR6vB3Z-137" value="User enter old name" style="rounded=1;whiteSpace=wrap;html=1;arcSize=40;fontColor=#000000;fillColor=#ffffc0;strokeColor=#ff0000;" parent="bFm6iSJfwCPPKSR6vB3Z-147" vertex="1">
          <mxGeometry y="540.0000000000001" width="120" height="40" as="geometry" />
        </mxCell>
        <mxCell id="bFm6iSJfwCPPKSR6vB3Z-138" value="" style="edgeStyle=orthogonalEdgeStyle;html=1;verticalAlign=bottom;endArrow=open;endSize=8;strokeColor=#ff0000;rounded=0;entryX=0.5;entryY=0;entryDx=0;entryDy=0;" parent="bFm6iSJfwCPPKSR6vB3Z-147" source="bFm6iSJfwCPPKSR6vB3Z-137" target="bFm6iSJfwCPPKSR6vB3Z-139" edge="1">
          <mxGeometry relative="1" as="geometry">
            <mxPoint x="60" y="640.0000000000001" as="targetPoint" />
          </mxGeometry>
        </mxCell>
        <mxCell id="bFm6iSJfwCPPKSR6vB3Z-139" value="User enter new name" style="rounded=1;whiteSpace=wrap;html=1;arcSize=40;fontColor=#000000;fillColor=#ffffc0;strokeColor=#ff0000;" parent="bFm6iSJfwCPPKSR6vB3Z-147" vertex="1">
          <mxGeometry y="640.0000000000001" width="120" height="40" as="geometry" />
        </mxCell>
        <mxCell id="bFm6iSJfwCPPKSR6vB3Z-140" value="" style="edgeStyle=orthogonalEdgeStyle;html=1;verticalAlign=bottom;endArrow=open;endSize=8;strokeColor=#ff0000;rounded=0;entryX=0.5;entryY=0;entryDx=0;entryDy=0;" parent="bFm6iSJfwCPPKSR6vB3Z-147" source="bFm6iSJfwCPPKSR6vB3Z-139" target="bFm6iSJfwCPPKSR6vB3Z-141" edge="1">
          <mxGeometry relative="1" as="geometry">
            <mxPoint x="60" y="740.0000000000001" as="targetPoint" />
          </mxGeometry>
        </mxCell>
        <mxCell id="bFm6iSJfwCPPKSR6vB3Z-141" value="User enter new description" style="rounded=1;whiteSpace=wrap;html=1;arcSize=40;fontColor=#000000;fillColor=#ffffc0;strokeColor=#ff0000;" parent="bFm6iSJfwCPPKSR6vB3Z-147" vertex="1">
          <mxGeometry y="740.0000000000001" width="120" height="40" as="geometry" />
        </mxCell>
        <mxCell id="bFm6iSJfwCPPKSR6vB3Z-142" value="" style="html=1;verticalAlign=bottom;endArrow=open;endSize=8;strokeColor=#ff0000;rounded=0;entryX=0.75;entryY=0;entryDx=0;entryDy=0;" parent="1" source="bFm6iSJfwCPPKSR6vB3Z-141" target="bFm6iSJfwCPPKSR6vB3Z-128" edge="1">
          <mxGeometry relative="1" as="geometry">
            <mxPoint x="-200" y="2245" as="targetPoint" />
          </mxGeometry>
        </mxCell>
        <mxCell id="bFm6iSJfwCPPKSR6vB3Z-154" value="" style="html=1;verticalAlign=bottom;endArrow=open;endSize=8;strokeColor=#ff0000;rounded=0;entryX=1;entryY=0.5;entryDx=0;entryDy=0;" parent="1" source="bFm6iSJfwCPPKSR6vB3Z-153" target="bFm6iSJfwCPPKSR6vB3Z-128" edge="1">
          <mxGeometry relative="1" as="geometry">
            <mxPoint x="-20" y="2150" as="targetPoint" />
          </mxGeometry>
        </mxCell>
        <mxCell id="bFm6iSJfwCPPKSR6vB3Z-165" value="" style="group" parent="1" vertex="1" connectable="0">
          <mxGeometry x="-100" y="609.9999999999999" width="120" height="680.0000000000001" as="geometry" />
        </mxCell>
        <mxCell id="bFm6iSJfwCPPKSR6vB3Z-118" value="" style="html=1;verticalAlign=bottom;endArrow=open;endSize=8;strokeColor=#ff0000;rounded=0;entryX=0.5;entryY=0;entryDx=0;entryDy=0;" parent="bFm6iSJfwCPPKSR6vB3Z-165" target="bFm6iSJfwCPPKSR6vB3Z-149" edge="1">
          <mxGeometry relative="1" as="geometry">
            <mxPoint x="60" y="440.0000000000001" as="targetPoint" />
            <mxPoint x="20" as="sourcePoint" />
          </mxGeometry>
        </mxCell>
        <mxCell id="bFm6iSJfwCPPKSR6vB3Z-157" value="" style="group" parent="bFm6iSJfwCPPKSR6vB3Z-165" vertex="1" connectable="0">
          <mxGeometry y="440.0000000000001" width="120" height="240" as="geometry" />
        </mxCell>
        <mxCell id="bFm6iSJfwCPPKSR6vB3Z-149" value="User selected to edit time of day" style="rounded=1;whiteSpace=wrap;html=1;arcSize=40;fontColor=#000000;fillColor=#ffffc0;strokeColor=#ff0000;" parent="bFm6iSJfwCPPKSR6vB3Z-157" vertex="1">
          <mxGeometry width="120" height="40" as="geometry" />
        </mxCell>
        <mxCell id="bFm6iSJfwCPPKSR6vB3Z-150" value="" style="edgeStyle=orthogonalEdgeStyle;html=1;verticalAlign=bottom;endArrow=open;endSize=8;strokeColor=#ff0000;rounded=0;entryX=0.5;entryY=0;entryDx=0;entryDy=0;" parent="bFm6iSJfwCPPKSR6vB3Z-157" source="bFm6iSJfwCPPKSR6vB3Z-149" target="bFm6iSJfwCPPKSR6vB3Z-151" edge="1">
          <mxGeometry relative="1" as="geometry">
            <mxPoint x="60" y="100" as="targetPoint" />
          </mxGeometry>
        </mxCell>
        <mxCell id="bFm6iSJfwCPPKSR6vB3Z-151" value="User enter name" style="rounded=1;whiteSpace=wrap;html=1;arcSize=40;fontColor=#000000;fillColor=#ffffc0;strokeColor=#ff0000;" parent="bFm6iSJfwCPPKSR6vB3Z-157" vertex="1">
          <mxGeometry y="100" width="120" height="40" as="geometry" />
        </mxCell>
        <mxCell id="bFm6iSJfwCPPKSR6vB3Z-152" value="" style="edgeStyle=orthogonalEdgeStyle;html=1;verticalAlign=bottom;endArrow=open;endSize=8;strokeColor=#ff0000;rounded=0;entryX=0.5;entryY=0;entryDx=0;entryDy=0;" parent="bFm6iSJfwCPPKSR6vB3Z-157" source="bFm6iSJfwCPPKSR6vB3Z-151" target="bFm6iSJfwCPPKSR6vB3Z-153" edge="1">
          <mxGeometry relative="1" as="geometry">
            <mxPoint x="60" y="200" as="targetPoint" />
          </mxGeometry>
        </mxCell>
        <mxCell id="bFm6iSJfwCPPKSR6vB3Z-153" value="User enter new time of day" style="rounded=1;whiteSpace=wrap;html=1;arcSize=40;fontColor=#000000;fillColor=#ffffc0;strokeColor=#ff0000;" parent="bFm6iSJfwCPPKSR6vB3Z-157" vertex="1">
          <mxGeometry y="200" width="120" height="40" as="geometry" />
        </mxCell>
        <mxCell id="bFm6iSJfwCPPKSR6vB3Z-166" value="" style="group" parent="1" vertex="1" connectable="0">
          <mxGeometry x="-40" y="609.9999999999999" width="320" height="780.0000000000001" as="geometry" />
        </mxCell>
        <mxCell id="bFm6iSJfwCPPKSR6vB3Z-119" value="" style="html=1;verticalAlign=bottom;endArrow=open;endSize=8;strokeColor=#ff0000;rounded=0;entryX=0.5;entryY=0;entryDx=0;entryDy=0;" parent="bFm6iSJfwCPPKSR6vB3Z-166" target="bFm6iSJfwCPPKSR6vB3Z-155" edge="1">
          <mxGeometry relative="1" as="geometry">
            <mxPoint x="250" y="430.0000000000001" as="targetPoint" />
            <mxPoint as="sourcePoint" />
          </mxGeometry>
        </mxCell>
        <mxCell id="bFm6iSJfwCPPKSR6vB3Z-155" value="User selected to edit date and time" style="rounded=1;whiteSpace=wrap;html=1;arcSize=40;fontColor=#000000;fillColor=#ffffc0;strokeColor=#ff0000;" parent="bFm6iSJfwCPPKSR6vB3Z-166" vertex="1">
          <mxGeometry x="200" y="440.0000000000001" width="120" height="40" as="geometry" />
        </mxCell>
        <mxCell id="bFm6iSJfwCPPKSR6vB3Z-156" value="" style="edgeStyle=orthogonalEdgeStyle;html=1;verticalAlign=bottom;endArrow=open;endSize=8;strokeColor=#ff0000;rounded=0;entryX=0.5;entryY=0;entryDx=0;entryDy=0;" parent="bFm6iSJfwCPPKSR6vB3Z-166" source="bFm6iSJfwCPPKSR6vB3Z-155" target="bFm6iSJfwCPPKSR6vB3Z-159" edge="1">
          <mxGeometry relative="1" as="geometry">
            <mxPoint x="260" y="540.0000000000001" as="targetPoint" />
          </mxGeometry>
        </mxCell>
        <mxCell id="bFm6iSJfwCPPKSR6vB3Z-159" value="User enter name" style="rounded=1;whiteSpace=wrap;html=1;arcSize=40;fontColor=#000000;fillColor=#ffffc0;strokeColor=#ff0000;" parent="bFm6iSJfwCPPKSR6vB3Z-166" vertex="1">
          <mxGeometry x="200" y="540.0000000000001" width="120" height="40" as="geometry" />
        </mxCell>
        <mxCell id="bFm6iSJfwCPPKSR6vB3Z-160" value="" style="edgeStyle=orthogonalEdgeStyle;html=1;verticalAlign=bottom;endArrow=open;endSize=8;strokeColor=#ff0000;rounded=0;entryX=0.5;entryY=0;entryDx=0;entryDy=0;" parent="bFm6iSJfwCPPKSR6vB3Z-166" source="bFm6iSJfwCPPKSR6vB3Z-159" target="bFm6iSJfwCPPKSR6vB3Z-161" edge="1">
          <mxGeometry relative="1" as="geometry">
            <mxPoint x="260" y="640.0000000000001" as="targetPoint" />
          </mxGeometry>
        </mxCell>
        <mxCell id="bFm6iSJfwCPPKSR6vB3Z-161" value="User enter new date" style="rounded=1;whiteSpace=wrap;html=1;arcSize=40;fontColor=#000000;fillColor=#ffffc0;strokeColor=#ff0000;" parent="bFm6iSJfwCPPKSR6vB3Z-166" vertex="1">
          <mxGeometry x="200" y="640.0000000000001" width="120" height="40" as="geometry" />
        </mxCell>
        <mxCell id="bFm6iSJfwCPPKSR6vB3Z-162" value="" style="edgeStyle=orthogonalEdgeStyle;html=1;verticalAlign=bottom;endArrow=open;endSize=8;strokeColor=#ff0000;rounded=0;entryX=0.5;entryY=0;entryDx=0;entryDy=0;" parent="bFm6iSJfwCPPKSR6vB3Z-166" source="bFm6iSJfwCPPKSR6vB3Z-161" target="bFm6iSJfwCPPKSR6vB3Z-163" edge="1">
          <mxGeometry relative="1" as="geometry">
            <mxPoint x="260" y="740.0000000000001" as="targetPoint" />
          </mxGeometry>
        </mxCell>
        <mxCell id="bFm6iSJfwCPPKSR6vB3Z-163" value="User enter new time" style="rounded=1;whiteSpace=wrap;html=1;arcSize=40;fontColor=#000000;fillColor=#ffffc0;strokeColor=#ff0000;" parent="bFm6iSJfwCPPKSR6vB3Z-166" vertex="1">
          <mxGeometry x="200" y="740.0000000000001" width="120" height="40" as="geometry" />
        </mxCell>
        <mxCell id="bFm6iSJfwCPPKSR6vB3Z-164" value="" style="html=1;verticalAlign=bottom;endArrow=open;endSize=8;strokeColor=#ff0000;rounded=0;entryX=1;entryY=0.5;entryDx=0;entryDy=0;" parent="bFm6iSJfwCPPKSR6vB3Z-166" source="bFm6iSJfwCPPKSR6vB3Z-163" target="bFm6iSJfwCPPKSR6vB3Z-128" edge="1">
          <mxGeometry relative="1" as="geometry">
            <mxPoint x="30" y="1635" as="targetPoint" />
          </mxGeometry>
        </mxCell>
        <mxCell id="bFm6iSJfwCPPKSR6vB3Z-167" value="" style="group" parent="1" vertex="1" connectable="0">
          <mxGeometry x="-1470" y="980" width="880" height="1140" as="geometry" />
        </mxCell>
        <mxCell id="bFm6iSJfwCPPKSR6vB3Z-101" value="" style="html=1;verticalAlign=bottom;endArrow=open;endSize=8;strokeColor=#ff0000;rounded=0;exitX=0.5;exitY=1;exitDx=0;exitDy=0;" parent="bFm6iSJfwCPPKSR6vB3Z-167" source="bFm6iSJfwCPPKSR6vB3Z-100" target="bFm6iSJfwCPPKSR6vB3Z-122" edge="1">
          <mxGeometry relative="1" as="geometry">
            <mxPoint x="690" y="630" as="targetPoint" />
            <mxPoint x="130" y="290" as="sourcePoint" />
          </mxGeometry>
        </mxCell>
        <mxCell id="bFm6iSJfwCPPKSR6vB3Z-146" value="" style="group" parent="bFm6iSJfwCPPKSR6vB3Z-167" vertex="1" connectable="0">
          <mxGeometry width="880" height="1140" as="geometry" />
        </mxCell>
        <mxCell id="bFm6iSJfwCPPKSR6vB3Z-125" value="" style="group" parent="bFm6iSJfwCPPKSR6vB3Z-146" vertex="1" connectable="0">
          <mxGeometry y="280" width="880" height="860" as="geometry" />
        </mxCell>
        <mxCell id="bFm6iSJfwCPPKSR6vB3Z-59" value="" style="html=1;verticalAlign=bottom;endArrow=open;endSize=8;strokeColor=#ff0000;rounded=0;exitX=0.896;exitY=0.778;exitDx=0;exitDy=0;exitPerimeter=0;entryX=0.5;entryY=0;entryDx=0;entryDy=0;" parent="bFm6iSJfwCPPKSR6vB3Z-125" source="bFm6iSJfwCPPKSR6vB3Z-55" target="bFm6iSJfwCPPKSR6vB3Z-100" edge="1">
          <mxGeometry relative="1" as="geometry">
            <mxPoint x="850" y="137.11127387152783" as="targetPoint" />
            <mxPoint x="830" y="20" as="sourcePoint" />
          </mxGeometry>
        </mxCell>
        <mxCell id="bFm6iSJfwCPPKSR6vB3Z-100" value="User select to exit the ingredient manager (0)" style="rounded=1;whiteSpace=wrap;html=1;arcSize=40;fontColor=#000000;fillColor=#ffffc0;strokeColor=#ff0000;" parent="bFm6iSJfwCPPKSR6vB3Z-125" vertex="1">
          <mxGeometry x="760" y="130" width="120" height="70" as="geometry" />
        </mxCell>
        <mxCell id="bFm6iSJfwCPPKSR6vB3Z-108" value="" style="group" parent="bFm6iSJfwCPPKSR6vB3Z-125" vertex="1" connectable="0">
          <mxGeometry width="710" height="860" as="geometry" />
        </mxCell>
        <mxCell id="bFm6iSJfwCPPKSR6vB3Z-55" value="" style="shape=line;html=1;strokeWidth=6;strokeColor=#ff0000;" parent="bFm6iSJfwCPPKSR6vB3Z-108" vertex="1">
          <mxGeometry x="320" width="320" height="10" as="geometry" />
        </mxCell>
        <mxCell id="bFm6iSJfwCPPKSR6vB3Z-56" value="" style="html=1;verticalAlign=bottom;endArrow=open;strokeColor=#ff0000;rounded=0;entryX=0.5;entryY=0;entryDx=0;entryDy=0;" parent="bFm6iSJfwCPPKSR6vB3Z-108" target="bFm6iSJfwCPPKSR6vB3Z-60" edge="1">
          <mxGeometry relative="1" as="geometry">
            <mxPoint x="180" y="150" as="targetPoint" />
            <mxPoint x="330" y="10" as="sourcePoint" />
          </mxGeometry>
        </mxCell>
        <mxCell id="bFm6iSJfwCPPKSR6vB3Z-57" value="" style="html=1;verticalAlign=bottom;endArrow=open;endSize=8;strokeColor=#ff0000;rounded=0;entryX=0.5;entryY=0;entryDx=0;entryDy=0;" parent="bFm6iSJfwCPPKSR6vB3Z-108" target="bFm6iSJfwCPPKSR6vB3Z-76" edge="1">
          <mxGeometry relative="1" as="geometry">
            <mxPoint x="390" y="80" as="targetPoint" />
            <mxPoint x="390" y="10" as="sourcePoint" />
          </mxGeometry>
        </mxCell>
        <mxCell id="bFm6iSJfwCPPKSR6vB3Z-58" value="" style="edgeStyle=orthogonalEdgeStyle;html=1;verticalAlign=bottom;endArrow=open;endSize=8;strokeColor=#ff0000;rounded=0;" parent="bFm6iSJfwCPPKSR6vB3Z-108" edge="1">
          <mxGeometry relative="1" as="geometry">
            <mxPoint x="490" y="150" as="targetPoint" />
            <mxPoint x="490" y="11" as="sourcePoint" />
          </mxGeometry>
        </mxCell>
        <mxCell id="bFm6iSJfwCPPKSR6vB3Z-60" value="User select to add ingredient (1)" style="rounded=1;whiteSpace=wrap;html=1;arcSize=40;fontColor=#000000;fillColor=#ffffc0;strokeColor=#ff0000;" parent="bFm6iSJfwCPPKSR6vB3Z-108" vertex="1">
          <mxGeometry x="120" y="150" width="120" height="40" as="geometry" />
        </mxCell>
        <mxCell id="bFm6iSJfwCPPKSR6vB3Z-61" value="" style="edgeStyle=orthogonalEdgeStyle;html=1;verticalAlign=bottom;endArrow=open;endSize=8;strokeColor=#ff0000;rounded=0;entryX=0.5;entryY=0;entryDx=0;entryDy=0;" parent="bFm6iSJfwCPPKSR6vB3Z-108" source="bFm6iSJfwCPPKSR6vB3Z-60" target="bFm6iSJfwCPPKSR6vB3Z-62" edge="1">
          <mxGeometry relative="1" as="geometry">
            <mxPoint x="180" y="250" as="targetPoint" />
          </mxGeometry>
        </mxCell>
        <mxCell id="bFm6iSJfwCPPKSR6vB3Z-62" value="User enter name" style="rounded=1;whiteSpace=wrap;html=1;arcSize=40;fontColor=#000000;fillColor=#ffffc0;strokeColor=#ff0000;" parent="bFm6iSJfwCPPKSR6vB3Z-108" vertex="1">
          <mxGeometry x="120" y="250" width="120" height="40" as="geometry" />
        </mxCell>
        <mxCell id="bFm6iSJfwCPPKSR6vB3Z-63" value="" style="edgeStyle=orthogonalEdgeStyle;html=1;verticalAlign=bottom;endArrow=open;endSize=8;strokeColor=#ff0000;rounded=0;entryX=0.5;entryY=0;entryDx=0;entryDy=0;" parent="bFm6iSJfwCPPKSR6vB3Z-108" source="bFm6iSJfwCPPKSR6vB3Z-62" target="bFm6iSJfwCPPKSR6vB3Z-64" edge="1">
          <mxGeometry relative="1" as="geometry">
            <mxPoint x="180" y="350" as="targetPoint" />
          </mxGeometry>
        </mxCell>
        <mxCell id="bFm6iSJfwCPPKSR6vB3Z-64" value="User enter quantity" style="rounded=1;whiteSpace=wrap;html=1;arcSize=40;fontColor=#000000;fillColor=#ffffc0;strokeColor=#ff0000;" parent="bFm6iSJfwCPPKSR6vB3Z-108" vertex="1">
          <mxGeometry x="120" y="350" width="120" height="40" as="geometry" />
        </mxCell>
        <mxCell id="bFm6iSJfwCPPKSR6vB3Z-65" value="" style="edgeStyle=orthogonalEdgeStyle;html=1;verticalAlign=bottom;endArrow=open;endSize=8;strokeColor=#ff0000;rounded=0;" parent="bFm6iSJfwCPPKSR6vB3Z-108" source="bFm6iSJfwCPPKSR6vB3Z-64" edge="1">
          <mxGeometry relative="1" as="geometry">
            <mxPoint x="180" y="450" as="targetPoint" />
          </mxGeometry>
        </mxCell>
        <mxCell id="bFm6iSJfwCPPKSR6vB3Z-66" value="User enter prices" style="rounded=1;whiteSpace=wrap;html=1;arcSize=40;fontColor=#000000;fillColor=#ffffc0;strokeColor=#ff0000;" parent="bFm6iSJfwCPPKSR6vB3Z-108" vertex="1">
          <mxGeometry x="120" y="450" width="120" height="40" as="geometry" />
        </mxCell>
        <mxCell id="bFm6iSJfwCPPKSR6vB3Z-67" value="" style="edgeStyle=orthogonalEdgeStyle;html=1;verticalAlign=bottom;endArrow=open;endSize=8;strokeColor=#ff0000;rounded=0;entryX=0.5;entryY=0;entryDx=0;entryDy=0;" parent="bFm6iSJfwCPPKSR6vB3Z-108" source="bFm6iSJfwCPPKSR6vB3Z-66" target="bFm6iSJfwCPPKSR6vB3Z-68" edge="1">
          <mxGeometry relative="1" as="geometry">
            <mxPoint x="180" y="550" as="targetPoint" />
          </mxGeometry>
        </mxCell>
        <mxCell id="bFm6iSJfwCPPKSR6vB3Z-68" value="User enter measurements" style="rounded=1;whiteSpace=wrap;html=1;arcSize=40;fontColor=#000000;fillColor=#ffffc0;strokeColor=#ff0000;" parent="bFm6iSJfwCPPKSR6vB3Z-108" vertex="1">
          <mxGeometry x="120" y="550" width="120" height="40" as="geometry" />
        </mxCell>
        <mxCell id="bFm6iSJfwCPPKSR6vB3Z-69" value="" style="edgeStyle=orthogonalEdgeStyle;html=1;verticalAlign=bottom;endArrow=open;endSize=8;strokeColor=#ff0000;rounded=0;entryX=0.5;entryY=0;entryDx=0;entryDy=0;" parent="bFm6iSJfwCPPKSR6vB3Z-108" source="bFm6iSJfwCPPKSR6vB3Z-68" target="bFm6iSJfwCPPKSR6vB3Z-70" edge="1">
          <mxGeometry relative="1" as="geometry">
            <mxPoint x="180" y="650" as="targetPoint" />
          </mxGeometry>
        </mxCell>
        <mxCell id="bFm6iSJfwCPPKSR6vB3Z-70" value="Console informed user that ingredient is added" style="rounded=1;whiteSpace=wrap;html=1;arcSize=40;fontColor=#000000;fillColor=#ffffc0;strokeColor=#ff0000;" parent="bFm6iSJfwCPPKSR6vB3Z-108" vertex="1">
          <mxGeometry x="120" y="650" width="120" height="50" as="geometry" />
        </mxCell>
        <mxCell id="bFm6iSJfwCPPKSR6vB3Z-71" value="" style="html=1;verticalAlign=bottom;endArrow=open;endSize=8;strokeColor=#ff0000;rounded=0;entryX=0.055;entryY=0.323;entryDx=0;entryDy=0;entryPerimeter=0;" parent="bFm6iSJfwCPPKSR6vB3Z-108" source="bFm6iSJfwCPPKSR6vB3Z-70" target="bFm6iSJfwCPPKSR6vB3Z-72" edge="1">
          <mxGeometry relative="1" as="geometry">
            <mxPoint x="180" y="770" as="targetPoint" />
          </mxGeometry>
        </mxCell>
        <mxCell id="bFm6iSJfwCPPKSR6vB3Z-72" value="" style="shape=line;html=1;strokeWidth=6;strokeColor=#ff0000;" parent="bFm6iSJfwCPPKSR6vB3Z-108" vertex="1">
          <mxGeometry x="250" y="850" width="340" height="10" as="geometry" />
        </mxCell>
        <mxCell id="bFm6iSJfwCPPKSR6vB3Z-73" value="" style="edgeStyle=orthogonalEdgeStyle;html=1;verticalAlign=bottom;endArrow=open;endSize=8;strokeColor=#ff0000;rounded=0;entryX=0;entryY=0.5;entryDx=0;entryDy=0;entryPerimeter=0;exitX=0;exitY=0.5;exitDx=0;exitDy=0;exitPerimeter=0;" parent="bFm6iSJfwCPPKSR6vB3Z-108" source="bFm6iSJfwCPPKSR6vB3Z-72" target="bFm6iSJfwCPPKSR6vB3Z-55" edge="1">
          <mxGeometry relative="1" as="geometry">
            <mxPoint x="-10" y="10" as="targetPoint" />
            <mxPoint x="40" y="845" as="sourcePoint" />
            <Array as="points">
              <mxPoint y="855" />
              <mxPoint y="5" />
            </Array>
          </mxGeometry>
        </mxCell>
        <mxCell id="bFm6iSJfwCPPKSR6vB3Z-76" value="User select to edit ingredients (2)" style="rounded=1;whiteSpace=wrap;html=1;arcSize=40;fontColor=#000000;fillColor=#ffffc0;strokeColor=#ff0000;" parent="bFm6iSJfwCPPKSR6vB3Z-108" vertex="1">
          <mxGeometry x="290" y="150" width="120" height="40" as="geometry" />
        </mxCell>
        <mxCell id="bFm6iSJfwCPPKSR6vB3Z-77" value="" style="edgeStyle=orthogonalEdgeStyle;html=1;verticalAlign=bottom;endArrow=open;endSize=8;strokeColor=#ff0000;rounded=0;entryX=0.5;entryY=0;entryDx=0;entryDy=0;" parent="bFm6iSJfwCPPKSR6vB3Z-108" source="bFm6iSJfwCPPKSR6vB3Z-76" target="bFm6iSJfwCPPKSR6vB3Z-78" edge="1">
          <mxGeometry relative="1" as="geometry">
            <mxPoint x="350" y="250" as="targetPoint" />
          </mxGeometry>
        </mxCell>
        <mxCell id="bFm6iSJfwCPPKSR6vB3Z-78" value="User enter name of existing ingredients" style="rounded=1;whiteSpace=wrap;html=1;arcSize=40;fontColor=#000000;fillColor=#ffffc0;strokeColor=#ff0000;" parent="bFm6iSJfwCPPKSR6vB3Z-108" vertex="1">
          <mxGeometry x="290" y="250" width="120" height="40" as="geometry" />
        </mxCell>
        <mxCell id="bFm6iSJfwCPPKSR6vB3Z-79" value="" style="edgeStyle=orthogonalEdgeStyle;html=1;verticalAlign=bottom;endArrow=open;endSize=8;strokeColor=#ff0000;rounded=0;entryX=0.5;entryY=0;entryDx=0;entryDy=0;" parent="bFm6iSJfwCPPKSR6vB3Z-108" source="bFm6iSJfwCPPKSR6vB3Z-78" target="bFm6iSJfwCPPKSR6vB3Z-80" edge="1">
          <mxGeometry relative="1" as="geometry">
            <mxPoint x="350" y="350" as="targetPoint" />
          </mxGeometry>
        </mxCell>
        <mxCell id="bFm6iSJfwCPPKSR6vB3Z-80" value="User enter new name" style="rounded=1;whiteSpace=wrap;html=1;arcSize=40;fontColor=#000000;fillColor=#ffffc0;strokeColor=#ff0000;" parent="bFm6iSJfwCPPKSR6vB3Z-108" vertex="1">
          <mxGeometry x="290" y="350" width="120" height="40" as="geometry" />
        </mxCell>
        <mxCell id="bFm6iSJfwCPPKSR6vB3Z-81" value="" style="edgeStyle=orthogonalEdgeStyle;html=1;verticalAlign=bottom;endArrow=open;endSize=8;strokeColor=#ff0000;rounded=0;entryX=0.5;entryY=0;entryDx=0;entryDy=0;" parent="bFm6iSJfwCPPKSR6vB3Z-108" source="bFm6iSJfwCPPKSR6vB3Z-80" target="bFm6iSJfwCPPKSR6vB3Z-82" edge="1">
          <mxGeometry relative="1" as="geometry">
            <mxPoint x="350" y="450" as="targetPoint" />
          </mxGeometry>
        </mxCell>
        <mxCell id="bFm6iSJfwCPPKSR6vB3Z-82" value="User enter new quantity" style="rounded=1;whiteSpace=wrap;html=1;arcSize=40;fontColor=#000000;fillColor=#ffffc0;strokeColor=#ff0000;" parent="bFm6iSJfwCPPKSR6vB3Z-108" vertex="1">
          <mxGeometry x="290" y="450" width="120" height="40" as="geometry" />
        </mxCell>
        <mxCell id="bFm6iSJfwCPPKSR6vB3Z-83" value="" style="edgeStyle=orthogonalEdgeStyle;html=1;verticalAlign=bottom;endArrow=open;endSize=8;strokeColor=#ff0000;rounded=0;entryX=0.5;entryY=0;entryDx=0;entryDy=0;" parent="bFm6iSJfwCPPKSR6vB3Z-108" source="bFm6iSJfwCPPKSR6vB3Z-82" target="bFm6iSJfwCPPKSR6vB3Z-84" edge="1">
          <mxGeometry relative="1" as="geometry">
            <mxPoint x="350" y="550" as="targetPoint" />
          </mxGeometry>
        </mxCell>
        <mxCell id="bFm6iSJfwCPPKSR6vB3Z-84" value="User enter new prices" style="rounded=1;whiteSpace=wrap;html=1;arcSize=40;fontColor=#000000;fillColor=#ffffc0;strokeColor=#ff0000;" parent="bFm6iSJfwCPPKSR6vB3Z-108" vertex="1">
          <mxGeometry x="290" y="550" width="120" height="40" as="geometry" />
        </mxCell>
        <mxCell id="bFm6iSJfwCPPKSR6vB3Z-85" value="" style="edgeStyle=orthogonalEdgeStyle;html=1;verticalAlign=bottom;endArrow=open;endSize=8;strokeColor=#ff0000;rounded=0;entryX=0.5;entryY=0;entryDx=0;entryDy=0;" parent="bFm6iSJfwCPPKSR6vB3Z-108" source="bFm6iSJfwCPPKSR6vB3Z-84" target="bFm6iSJfwCPPKSR6vB3Z-86" edge="1">
          <mxGeometry relative="1" as="geometry">
            <mxPoint x="350" y="650" as="targetPoint" />
          </mxGeometry>
        </mxCell>
        <mxCell id="bFm6iSJfwCPPKSR6vB3Z-86" value="User enter new measurements" style="rounded=1;whiteSpace=wrap;html=1;arcSize=40;fontColor=#000000;fillColor=#ffffc0;strokeColor=#ff0000;" parent="bFm6iSJfwCPPKSR6vB3Z-108" vertex="1">
          <mxGeometry x="290" y="650" width="120" height="40" as="geometry" />
        </mxCell>
        <mxCell id="bFm6iSJfwCPPKSR6vB3Z-87" value="" style="edgeStyle=orthogonalEdgeStyle;html=1;verticalAlign=bottom;endArrow=open;endSize=8;strokeColor=#ff0000;rounded=0;entryX=0.5;entryY=0;entryDx=0;entryDy=0;" parent="bFm6iSJfwCPPKSR6vB3Z-108" source="bFm6iSJfwCPPKSR6vB3Z-86" target="bFm6iSJfwCPPKSR6vB3Z-88" edge="1">
          <mxGeometry relative="1" as="geometry">
            <mxPoint x="350" y="750" as="targetPoint" />
          </mxGeometry>
        </mxCell>
        <mxCell id="bFm6iSJfwCPPKSR6vB3Z-88" value="Console informed user that ingredient is updated" style="rounded=1;whiteSpace=wrap;html=1;arcSize=40;fontColor=#000000;fillColor=#ffffc0;strokeColor=#ff0000;" parent="bFm6iSJfwCPPKSR6vB3Z-108" vertex="1">
          <mxGeometry x="290" y="750" width="120" height="40" as="geometry" />
        </mxCell>
        <mxCell id="bFm6iSJfwCPPKSR6vB3Z-89" value="" style="edgeStyle=orthogonalEdgeStyle;html=1;verticalAlign=bottom;endArrow=open;endSize=8;strokeColor=#ff0000;rounded=0;entryX=0.292;entryY=0.615;entryDx=0;entryDy=0;entryPerimeter=0;" parent="bFm6iSJfwCPPKSR6vB3Z-108" source="bFm6iSJfwCPPKSR6vB3Z-88" target="bFm6iSJfwCPPKSR6vB3Z-72" edge="1">
          <mxGeometry relative="1" as="geometry">
            <mxPoint x="350" y="850" as="targetPoint" />
          </mxGeometry>
        </mxCell>
        <mxCell id="bFm6iSJfwCPPKSR6vB3Z-92" value="User select to delete ingredients (3)" style="rounded=1;whiteSpace=wrap;html=1;arcSize=40;fontColor=#000000;fillColor=#ffffc0;strokeColor=#ff0000;" parent="bFm6iSJfwCPPKSR6vB3Z-108" vertex="1">
          <mxGeometry x="430" y="150" width="120" height="40" as="geometry" />
        </mxCell>
        <mxCell id="bFm6iSJfwCPPKSR6vB3Z-93" value="" style="edgeStyle=orthogonalEdgeStyle;html=1;verticalAlign=bottom;endArrow=open;endSize=8;strokeColor=#ff0000;rounded=0;entryX=0.5;entryY=0;entryDx=0;entryDy=0;" parent="bFm6iSJfwCPPKSR6vB3Z-108" source="bFm6iSJfwCPPKSR6vB3Z-92" target="bFm6iSJfwCPPKSR6vB3Z-96" edge="1">
          <mxGeometry relative="1" as="geometry">
            <mxPoint x="490" y="250" as="targetPoint" />
          </mxGeometry>
        </mxCell>
        <mxCell id="bFm6iSJfwCPPKSR6vB3Z-96" value="User enter name of existing ingredients" style="rounded=1;whiteSpace=wrap;html=1;arcSize=40;fontColor=#000000;fillColor=#ffffc0;strokeColor=#ff0000;" parent="bFm6iSJfwCPPKSR6vB3Z-108" vertex="1">
          <mxGeometry x="430" y="450" width="120" height="40" as="geometry" />
        </mxCell>
        <mxCell id="bFm6iSJfwCPPKSR6vB3Z-97" value="" style="edgeStyle=orthogonalEdgeStyle;html=1;verticalAlign=bottom;endArrow=open;endSize=8;strokeColor=#ff0000;rounded=0;entryX=0.5;entryY=0;entryDx=0;entryDy=0;" parent="bFm6iSJfwCPPKSR6vB3Z-108" source="bFm6iSJfwCPPKSR6vB3Z-96" target="bFm6iSJfwCPPKSR6vB3Z-98" edge="1">
          <mxGeometry relative="1" as="geometry">
            <mxPoint x="490" y="550" as="targetPoint" />
          </mxGeometry>
        </mxCell>
        <mxCell id="bFm6iSJfwCPPKSR6vB3Z-98" value="Console informed user that ingredient is deleted" style="rounded=1;whiteSpace=wrap;html=1;arcSize=40;fontColor=#000000;fillColor=#ffffc0;strokeColor=#ff0000;" parent="bFm6iSJfwCPPKSR6vB3Z-108" vertex="1">
          <mxGeometry x="430" y="750" width="120" height="40" as="geometry" />
        </mxCell>
        <mxCell id="bFm6iSJfwCPPKSR6vB3Z-99" value="" style="edgeStyle=orthogonalEdgeStyle;html=1;verticalAlign=bottom;endArrow=open;endSize=8;strokeColor=#ff0000;rounded=0;entryX=0.707;entryY=0.677;entryDx=0;entryDy=0;entryPerimeter=0;" parent="bFm6iSJfwCPPKSR6vB3Z-108" source="bFm6iSJfwCPPKSR6vB3Z-98" target="bFm6iSJfwCPPKSR6vB3Z-72" edge="1">
          <mxGeometry relative="1" as="geometry">
            <mxPoint x="489" y="856" as="targetPoint" />
          </mxGeometry>
        </mxCell>
        <mxCell id="kQ-4LFxc3TzlSzvaXWZS-1" value="User select to get all ingredients" style="rounded=1;whiteSpace=wrap;html=1;arcSize=40;fontColor=#000000;fillColor=#ffffc0;strokeColor=#ff0000;" vertex="1" parent="bFm6iSJfwCPPKSR6vB3Z-108">
          <mxGeometry x="570" y="150" width="120" height="40" as="geometry" />
        </mxCell>
        <mxCell id="kQ-4LFxc3TzlSzvaXWZS-2" value="" style="edgeStyle=orthogonalEdgeStyle;html=1;verticalAlign=bottom;endArrow=open;endSize=8;strokeColor=#ff0000;rounded=0;entryX=0.5;entryY=0;entryDx=0;entryDy=0;" edge="1" source="kQ-4LFxc3TzlSzvaXWZS-1" parent="bFm6iSJfwCPPKSR6vB3Z-108" target="kQ-4LFxc3TzlSzvaXWZS-5">
          <mxGeometry relative="1" as="geometry">
            <mxPoint x="650" y="250" as="targetPoint" />
          </mxGeometry>
        </mxCell>
        <mxCell id="kQ-4LFxc3TzlSzvaXWZS-4" value="" style="html=1;verticalAlign=bottom;endArrow=open;endSize=8;strokeColor=#ff0000;rounded=0;entryX=0.5;entryY=0;entryDx=0;entryDy=0;exitX=0.75;exitY=0.5;exitDx=0;exitDy=0;exitPerimeter=0;" edge="1" parent="bFm6iSJfwCPPKSR6vB3Z-108" source="bFm6iSJfwCPPKSR6vB3Z-55" target="kQ-4LFxc3TzlSzvaXWZS-1">
          <mxGeometry relative="1" as="geometry">
            <mxPoint x="830" y="140" as="targetPoint" />
            <mxPoint x="550" y="70" as="sourcePoint" />
          </mxGeometry>
        </mxCell>
        <mxCell id="kQ-4LFxc3TzlSzvaXWZS-5" value="Console informed user that ingredient is deleted" style="rounded=1;whiteSpace=wrap;html=1;arcSize=40;fontColor=#000000;fillColor=#ffffc0;strokeColor=#ff0000;" vertex="1" parent="bFm6iSJfwCPPKSR6vB3Z-108">
          <mxGeometry x="570" y="750" width="120" height="40" as="geometry" />
        </mxCell>
        <mxCell id="kQ-4LFxc3TzlSzvaXWZS-6" value="" style="html=1;verticalAlign=bottom;endArrow=open;endSize=8;strokeColor=#ff0000;rounded=0;entryX=0.828;entryY=0.192;entryDx=0;entryDy=0;entryPerimeter=0;exitX=0.5;exitY=1;exitDx=0;exitDy=0;" edge="1" parent="bFm6iSJfwCPPKSR6vB3Z-108" source="kQ-4LFxc3TzlSzvaXWZS-5" target="bFm6iSJfwCPPKSR6vB3Z-72">
          <mxGeometry relative="1" as="geometry">
            <mxPoint x="560" y="837" as="targetPoint" />
            <mxPoint x="560" y="770" as="sourcePoint" />
          </mxGeometry>
        </mxCell>
        <mxCell id="bFm6iSJfwCPPKSR6vB3Z-132" value="" style="html=1;verticalAlign=bottom;endArrow=open;endSize=8;strokeColor=#ff0000;rounded=0;exitX=0;exitY=0.75;exitDx=0;exitDy=0;entryX=0.5;entryY=0;entryDx=0;entryDy=0;" parent="bFm6iSJfwCPPKSR6vB3Z-146" source="bFm6iSJfwCPPKSR6vB3Z-45" target="bFm6iSJfwCPPKSR6vB3Z-133" edge="1">
          <mxGeometry relative="1" as="geometry">
            <mxPoint x="570" y="60" as="targetPoint" />
            <mxPoint x="655" y="-22" as="sourcePoint" />
          </mxGeometry>
        </mxCell>
        <mxCell id="bFm6iSJfwCPPKSR6vB3Z-133" value="Console display options to add, edit, or delete ingredients" style="rounded=1;whiteSpace=wrap;html=1;arcSize=40;fontColor=#000000;fillColor=#ffffc0;strokeColor=#ff0000;" parent="bFm6iSJfwCPPKSR6vB3Z-146" vertex="1">
          <mxGeometry x="430" y="150" width="120" height="80" as="geometry" />
        </mxCell>
        <mxCell id="bFm6iSJfwCPPKSR6vB3Z-134" value="" style="edgeStyle=orthogonalEdgeStyle;html=1;verticalAlign=bottom;endArrow=open;endSize=8;strokeColor=#ff0000;rounded=0;entryX=0.534;entryY=0.444;entryDx=0;entryDy=0;entryPerimeter=0;" parent="bFm6iSJfwCPPKSR6vB3Z-146" source="bFm6iSJfwCPPKSR6vB3Z-133" target="bFm6iSJfwCPPKSR6vB3Z-55" edge="1">
          <mxGeometry relative="1" as="geometry">
            <mxPoint x="490" y="250" as="targetPoint" />
          </mxGeometry>
        </mxCell>
        <mxCell id="bFm6iSJfwCPPKSR6vB3Z-45" value="open the ingredient manager" style="rounded=1;whiteSpace=wrap;html=1;arcSize=40;fontColor=#000000;fillColor=#ffffc0;strokeColor=#ff0000;" parent="bFm6iSJfwCPPKSR6vB3Z-146" vertex="1">
          <mxGeometry x="720" width="130" height="50" as="geometry" />
        </mxCell>
        <mxCell id="bFm6iSJfwCPPKSR6vB3Z-168" value="User selected to get all meals (2)" style="rounded=1;whiteSpace=wrap;html=1;arcSize=40;fontColor=#000000;fillColor=#ffffc0;strokeColor=#ff0000;" parent="1" vertex="1">
          <mxGeometry x="365" y="1060" width="120" height="40" as="geometry" />
        </mxCell>
        <mxCell id="bFm6iSJfwCPPKSR6vB3Z-169" value="" style="edgeStyle=orthogonalEdgeStyle;html=1;verticalAlign=bottom;endArrow=open;endSize=8;strokeColor=#ff0000;rounded=0;entryX=0.5;entryY=0;entryDx=0;entryDy=0;" parent="1" source="bFm6iSJfwCPPKSR6vB3Z-168" target="bFm6iSJfwCPPKSR6vB3Z-170" edge="1">
          <mxGeometry relative="1" as="geometry">
            <mxPoint x="590" y="1150" as="targetPoint" />
          </mxGeometry>
        </mxCell>
        <mxCell id="bFm6iSJfwCPPKSR6vB3Z-170" value="Console listing all meals" style="rounded=1;whiteSpace=wrap;html=1;arcSize=40;fontColor=#000000;fillColor=#ffffc0;strokeColor=#ff0000;" parent="1" vertex="1">
          <mxGeometry x="365" y="2200" width="120" height="40" as="geometry" />
        </mxCell>
        <mxCell id="bFm6iSJfwCPPKSR6vB3Z-171" value="" style="html=1;verticalAlign=bottom;endArrow=open;endSize=8;strokeColor=#ff0000;rounded=0;" parent="1" source="bFm6iSJfwCPPKSR6vB3Z-170" target="bFm6iSJfwCPPKSR6vB3Z-104" edge="1">
          <mxGeometry relative="1" as="geometry">
            <mxPoint x="590" y="2300" as="targetPoint" />
          </mxGeometry>
        </mxCell>
        <mxCell id="bFm6iSJfwCPPKSR6vB3Z-174" value="User selected to get list of meals by time of day (3)" style="rounded=1;whiteSpace=wrap;html=1;arcSize=40;fontColor=#000000;fillColor=#ffffc0;strokeColor=#ff0000;" parent="1" vertex="1">
          <mxGeometry x="730" y="620" width="120" height="40" as="geometry" />
        </mxCell>
        <mxCell id="bFm6iSJfwCPPKSR6vB3Z-175" value="" style="edgeStyle=orthogonalEdgeStyle;html=1;verticalAlign=bottom;endArrow=open;endSize=8;strokeColor=#ff0000;rounded=0;entryX=0.5;entryY=0;entryDx=0;entryDy=0;" parent="1" source="bFm6iSJfwCPPKSR6vB3Z-174" target="bFm6iSJfwCPPKSR6vB3Z-176" edge="1">
          <mxGeometry relative="1" as="geometry">
            <mxPoint x="790" y="720" as="targetPoint" />
          </mxGeometry>
        </mxCell>
        <mxCell id="bFm6iSJfwCPPKSR6vB3Z-176" value="User enter time of day" style="rounded=1;whiteSpace=wrap;html=1;arcSize=40;fontColor=#000000;fillColor=#ffffc0;strokeColor=#ff0000;" parent="1" vertex="1">
          <mxGeometry x="730" y="1060" width="120" height="40" as="geometry" />
        </mxCell>
        <mxCell id="bFm6iSJfwCPPKSR6vB3Z-177" value="" style="edgeStyle=orthogonalEdgeStyle;html=1;verticalAlign=bottom;endArrow=open;endSize=8;strokeColor=#ff0000;rounded=0;entryX=0.5;entryY=0;entryDx=0;entryDy=0;" parent="1" source="bFm6iSJfwCPPKSR6vB3Z-176" target="bFm6iSJfwCPPKSR6vB3Z-178" edge="1">
          <mxGeometry relative="1" as="geometry">
            <mxPoint x="790" y="1160" as="targetPoint" />
          </mxGeometry>
        </mxCell>
        <mxCell id="bFm6iSJfwCPPKSR6vB3Z-178" value="Console listing meals by time of day user entered" style="rounded=1;whiteSpace=wrap;html=1;arcSize=40;fontColor=#000000;fillColor=#ffffc0;strokeColor=#ff0000;" parent="1" vertex="1">
          <mxGeometry x="730" y="2200" width="120" height="60" as="geometry" />
        </mxCell>
        <mxCell id="bFm6iSJfwCPPKSR6vB3Z-179" value="" style="html=1;verticalAlign=bottom;endArrow=open;endSize=8;strokeColor=#ff0000;rounded=0;" parent="1" source="bFm6iSJfwCPPKSR6vB3Z-178" target="bFm6iSJfwCPPKSR6vB3Z-104" edge="1">
          <mxGeometry relative="1" as="geometry">
            <mxPoint x="790" y="2300" as="targetPoint" />
          </mxGeometry>
        </mxCell>
        <mxCell id="bFm6iSJfwCPPKSR6vB3Z-180" value="User selected to search meal by name (4)" style="rounded=1;whiteSpace=wrap;html=1;arcSize=40;fontColor=#000000;fillColor=#ffffc0;strokeColor=#ff0000;" parent="1" vertex="1">
          <mxGeometry x="970" y="620" width="120" height="80" as="geometry" />
        </mxCell>
        <mxCell id="bFm6iSJfwCPPKSR6vB3Z-181" value="" style="html=1;verticalAlign=bottom;endArrow=open;endSize=8;strokeColor=#ff0000;rounded=0;entryX=0.5;entryY=0;entryDx=0;entryDy=0;" parent="1" source="bFm6iSJfwCPPKSR6vB3Z-180" target="bFm6iSJfwCPPKSR6vB3Z-182" edge="1">
          <mxGeometry relative="1" as="geometry">
            <mxPoint x="1030" y="720" as="targetPoint" />
          </mxGeometry>
        </mxCell>
        <mxCell id="bFm6iSJfwCPPKSR6vB3Z-182" value="User enter name" style="rounded=1;whiteSpace=wrap;html=1;arcSize=40;fontColor=#000000;fillColor=#ffffc0;strokeColor=#ff0000;" parent="1" vertex="1">
          <mxGeometry x="970" y="1060" width="120" height="40" as="geometry" />
        </mxCell>
        <mxCell id="bFm6iSJfwCPPKSR6vB3Z-183" value="" style="html=1;verticalAlign=bottom;endArrow=open;endSize=8;strokeColor=#ff0000;rounded=0;entryX=0.5;entryY=0;entryDx=0;entryDy=0;" parent="1" source="bFm6iSJfwCPPKSR6vB3Z-182" target="bFm6iSJfwCPPKSR6vB3Z-184" edge="1">
          <mxGeometry relative="1" as="geometry">
            <mxPoint x="1030" y="1160" as="targetPoint" />
          </mxGeometry>
        </mxCell>
        <mxCell id="bFm6iSJfwCPPKSR6vB3Z-184" value="Console return the one meal by name user entered" style="rounded=1;whiteSpace=wrap;html=1;arcSize=40;fontColor=#000000;fillColor=#ffffc0;strokeColor=#ff0000;" parent="1" vertex="1">
          <mxGeometry x="970" y="2200" width="120" height="60" as="geometry" />
        </mxCell>
        <mxCell id="bFm6iSJfwCPPKSR6vB3Z-185" value="" style="html=1;verticalAlign=bottom;endArrow=open;endSize=8;strokeColor=#ff0000;rounded=0;" parent="1" source="bFm6iSJfwCPPKSR6vB3Z-184" target="bFm6iSJfwCPPKSR6vB3Z-104" edge="1">
          <mxGeometry relative="1" as="geometry">
            <mxPoint x="1030" y="2300" as="targetPoint" />
          </mxGeometry>
        </mxCell>
        <mxCell id="bFm6iSJfwCPPKSR6vB3Z-186" value="User selected to delete meal (6)" style="rounded=1;whiteSpace=wrap;html=1;arcSize=40;fontColor=#000000;fillColor=#ffffc0;strokeColor=#ff0000;" parent="1" vertex="1">
          <mxGeometry x="1370" y="620" width="120" height="40" as="geometry" />
        </mxCell>
        <mxCell id="bFm6iSJfwCPPKSR6vB3Z-187" value="" style="html=1;verticalAlign=bottom;endArrow=open;endSize=8;strokeColor=#ff0000;rounded=0;entryX=0.5;entryY=0;entryDx=0;entryDy=0;" parent="1" source="bFm6iSJfwCPPKSR6vB3Z-186" target="bFm6iSJfwCPPKSR6vB3Z-188" edge="1">
          <mxGeometry relative="1" as="geometry">
            <mxPoint x="1430" y="720" as="targetPoint" />
          </mxGeometry>
        </mxCell>
        <mxCell id="bFm6iSJfwCPPKSR6vB3Z-188" value="User enter name" style="rounded=1;whiteSpace=wrap;html=1;arcSize=40;fontColor=#000000;fillColor=#ffffc0;strokeColor=#ff0000;" parent="1" vertex="1">
          <mxGeometry x="1370" y="1060" width="120" height="40" as="geometry" />
        </mxCell>
        <mxCell id="bFm6iSJfwCPPKSR6vB3Z-189" value="" style="html=1;verticalAlign=bottom;endArrow=open;endSize=8;strokeColor=#ff0000;rounded=0;entryX=0.5;entryY=0;entryDx=0;entryDy=0;" parent="1" source="bFm6iSJfwCPPKSR6vB3Z-188" target="bFm6iSJfwCPPKSR6vB3Z-190" edge="1">
          <mxGeometry relative="1" as="geometry">
            <mxPoint x="1430" y="1160" as="targetPoint" />
          </mxGeometry>
        </mxCell>
        <mxCell id="bFm6iSJfwCPPKSR6vB3Z-190" value="Console informed that meal have been deleted" style="rounded=1;whiteSpace=wrap;html=1;arcSize=40;fontColor=#000000;fillColor=#ffffc0;strokeColor=#ff0000;" parent="1" vertex="1">
          <mxGeometry x="1370" y="2195" width="120" height="65" as="geometry" />
        </mxCell>
        <mxCell id="bFm6iSJfwCPPKSR6vB3Z-191" value="" style="html=1;verticalAlign=bottom;endArrow=open;endSize=8;strokeColor=#ff0000;rounded=0;" parent="1" source="bFm6iSJfwCPPKSR6vB3Z-190" target="bFm6iSJfwCPPKSR6vB3Z-104" edge="1">
          <mxGeometry relative="1" as="geometry">
            <mxPoint x="1430" y="2295" as="targetPoint" />
          </mxGeometry>
        </mxCell>
        <mxCell id="bFm6iSJfwCPPKSR6vB3Z-192" value="User selected to file manage options (7)" style="rounded=1;whiteSpace=wrap;html=1;arcSize=40;fontColor=#000000;fillColor=#ffffc0;strokeColor=#ff0000;" parent="1" vertex="1">
          <mxGeometry x="1810" y="620" width="120" height="40" as="geometry" />
        </mxCell>
        <mxCell id="bFm6iSJfwCPPKSR6vB3Z-193" value="" style="html=1;verticalAlign=bottom;endArrow=open;endSize=8;strokeColor=#ff0000;rounded=0;entryX=0.5;entryY=0;entryDx=0;entryDy=0;" parent="1" source="bFm6iSJfwCPPKSR6vB3Z-192" target="bFm6iSJfwCPPKSR6vB3Z-194" edge="1">
          <mxGeometry relative="1" as="geometry">
            <mxPoint x="1870" y="720" as="targetPoint" />
          </mxGeometry>
        </mxCell>
        <mxCell id="bFm6iSJfwCPPKSR6vB3Z-194" value="Console display options for user to save or load" style="rounded=1;whiteSpace=wrap;html=1;arcSize=40;fontColor=#000000;fillColor=#ffffc0;strokeColor=#ff0000;" parent="1" vertex="1">
          <mxGeometry x="1810" y="810" width="120" height="60" as="geometry" />
        </mxCell>
        <mxCell id="bFm6iSJfwCPPKSR6vB3Z-195" value="" style="html=1;verticalAlign=bottom;endArrow=open;endSize=8;strokeColor=#ff0000;rounded=0;" parent="1" source="bFm6iSJfwCPPKSR6vB3Z-194" target="bFm6iSJfwCPPKSR6vB3Z-196" edge="1">
          <mxGeometry relative="1" as="geometry">
            <mxPoint x="1870" y="910" as="targetPoint" />
          </mxGeometry>
        </mxCell>
        <mxCell id="bFm6iSJfwCPPKSR6vB3Z-196" value="" style="shape=line;html=1;strokeWidth=6;strokeColor=#ff0000;" parent="1" vertex="1">
          <mxGeometry x="1760" y="1040" width="200" height="10" as="geometry" />
        </mxCell>
        <mxCell id="bFm6iSJfwCPPKSR6vB3Z-197" value="" style="html=1;verticalAlign=bottom;endArrow=open;endSize=8;strokeColor=#ff0000;rounded=0;entryX=0.5;entryY=0;entryDx=0;entryDy=0;" parent="1" source="bFm6iSJfwCPPKSR6vB3Z-196" target="bFm6iSJfwCPPKSR6vB3Z-199" edge="1">
          <mxGeometry relative="1" as="geometry">
            <mxPoint x="1750" y="1210" as="targetPoint" />
          </mxGeometry>
        </mxCell>
        <mxCell id="bFm6iSJfwCPPKSR6vB3Z-198" value="" style="html=1;verticalAlign=bottom;endArrow=open;endSize=8;strokeColor=#ff0000;rounded=0;entryX=0.5;entryY=0;entryDx=0;entryDy=0;" parent="1" source="bFm6iSJfwCPPKSR6vB3Z-196" target="bFm6iSJfwCPPKSR6vB3Z-201" edge="1">
          <mxGeometry relative="1" as="geometry">
            <mxPoint x="2010" y="1210" as="targetPoint" />
            <mxPoint x="2100" y="1120" as="sourcePoint" />
          </mxGeometry>
        </mxCell>
        <mxCell id="bFm6iSJfwCPPKSR6vB3Z-199" value="User selected to save meals" style="rounded=1;whiteSpace=wrap;html=1;arcSize=40;fontColor=#000000;fillColor=#ffffc0;strokeColor=#ff0000;" parent="1" vertex="1">
          <mxGeometry x="1640" y="1270" width="120" height="40" as="geometry" />
        </mxCell>
        <mxCell id="bFm6iSJfwCPPKSR6vB3Z-200" value="" style="edgeStyle=orthogonalEdgeStyle;html=1;verticalAlign=bottom;endArrow=open;endSize=8;strokeColor=#ff0000;rounded=0;entryX=0.5;entryY=0;entryDx=0;entryDy=0;" parent="1" source="bFm6iSJfwCPPKSR6vB3Z-199" target="bFm6iSJfwCPPKSR6vB3Z-203" edge="1">
          <mxGeometry relative="1" as="geometry">
            <mxPoint x="1700" y="1370" as="targetPoint" />
          </mxGeometry>
        </mxCell>
        <mxCell id="bFm6iSJfwCPPKSR6vB3Z-201" value="User selected to load meals" style="rounded=1;whiteSpace=wrap;html=1;arcSize=40;fontColor=#000000;fillColor=#ffffc0;strokeColor=#ff0000;" parent="1" vertex="1">
          <mxGeometry x="2080" y="1280" width="120" height="40" as="geometry" />
        </mxCell>
        <mxCell id="bFm6iSJfwCPPKSR6vB3Z-202" value="" style="html=1;verticalAlign=bottom;endArrow=open;endSize=8;strokeColor=#ff0000;rounded=0;entryX=0.5;entryY=0;entryDx=0;entryDy=0;" parent="1" source="bFm6iSJfwCPPKSR6vB3Z-201" target="bFm6iSJfwCPPKSR6vB3Z-221" edge="1">
          <mxGeometry relative="1" as="geometry">
            <mxPoint x="2140" y="1380" as="targetPoint" />
          </mxGeometry>
        </mxCell>
        <mxCell id="bFm6iSJfwCPPKSR6vB3Z-203" value="User enter file name" style="rounded=1;whiteSpace=wrap;html=1;arcSize=40;fontColor=#000000;fillColor=#ffffc0;strokeColor=#ff0000;" parent="1" vertex="1">
          <mxGeometry x="1640" y="1530" width="120" height="40" as="geometry" />
        </mxCell>
        <mxCell id="bFm6iSJfwCPPKSR6vB3Z-204" value="" style="edgeStyle=orthogonalEdgeStyle;html=1;verticalAlign=bottom;endArrow=open;endSize=8;strokeColor=#ff0000;rounded=0;" parent="1" source="bFm6iSJfwCPPKSR6vB3Z-203" target="bFm6iSJfwCPPKSR6vB3Z-205" edge="1">
          <mxGeometry relative="1" as="geometry">
            <mxPoint x="1700" y="1630" as="targetPoint" />
          </mxGeometry>
        </mxCell>
        <mxCell id="bFm6iSJfwCPPKSR6vB3Z-205" value="File exist?" style="rhombus;whiteSpace=wrap;html=1;fontColor=#000000;fillColor=#ffffc0;strokeColor=#ff0000;" parent="1" vertex="1">
          <mxGeometry x="1645" y="1710" width="110" height="80" as="geometry" />
        </mxCell>
        <mxCell id="bFm6iSJfwCPPKSR6vB3Z-206" value="no" style="html=1;align=left;verticalAlign=bottom;endArrow=open;strokeColor=#ff0000;rounded=0;entryX=0.5;entryY=0;entryDx=0;entryDy=0;" parent="1" source="bFm6iSJfwCPPKSR6vB3Z-205" target="bFm6iSJfwCPPKSR6vB3Z-209" edge="1">
          <mxGeometry x="0.0213" y="7" relative="1" as="geometry">
            <mxPoint x="1670" y="2170" as="targetPoint" />
            <mxPoint as="offset" />
          </mxGeometry>
        </mxCell>
        <mxCell id="bFm6iSJfwCPPKSR6vB3Z-207" value="yes" style="html=1;align=left;verticalAlign=top;endArrow=open;endSize=8;strokeColor=#ff0000;rounded=0;entryX=0.5;entryY=0;entryDx=0;entryDy=0;" parent="1" source="bFm6iSJfwCPPKSR6vB3Z-205" target="bFm6iSJfwCPPKSR6vB3Z-211" edge="1">
          <mxGeometry x="-0.0835" y="5" relative="1" as="geometry">
            <mxPoint x="2050" y="1970" as="targetPoint" />
            <mxPoint as="offset" />
          </mxGeometry>
        </mxCell>
        <mxCell id="bFm6iSJfwCPPKSR6vB3Z-209" value="Console informed meals have been saved" style="rounded=1;whiteSpace=wrap;html=1;arcSize=40;fontColor=#000000;fillColor=#ffffc0;strokeColor=#ff0000;" parent="1" vertex="1">
          <mxGeometry x="1580" y="2195" width="120" height="40" as="geometry" />
        </mxCell>
        <mxCell id="bFm6iSJfwCPPKSR6vB3Z-210" value="" style="html=1;verticalAlign=bottom;endArrow=open;endSize=8;strokeColor=#ff0000;rounded=0;" parent="1" source="bFm6iSJfwCPPKSR6vB3Z-209" target="bFm6iSJfwCPPKSR6vB3Z-104" edge="1">
          <mxGeometry relative="1" as="geometry">
            <mxPoint x="1640" y="2295" as="targetPoint" />
          </mxGeometry>
        </mxCell>
        <mxCell id="bFm6iSJfwCPPKSR6vB3Z-211" value="Console asked if user can overwrite it or not" style="rounded=1;whiteSpace=wrap;html=1;arcSize=40;fontColor=#000000;fillColor=#ffffc0;strokeColor=#ff0000;" parent="1" vertex="1">
          <mxGeometry x="1780" y="1960" width="120" height="40" as="geometry" />
        </mxCell>
        <mxCell id="bFm6iSJfwCPPKSR6vB3Z-212" value="" style="edgeStyle=orthogonalEdgeStyle;html=1;verticalAlign=bottom;endArrow=open;endSize=8;strokeColor=#ff0000;rounded=0;" parent="1" source="bFm6iSJfwCPPKSR6vB3Z-211" edge="1">
          <mxGeometry relative="1" as="geometry">
            <mxPoint x="1840" y="2060" as="targetPoint" />
          </mxGeometry>
        </mxCell>
        <mxCell id="bFm6iSJfwCPPKSR6vB3Z-213" value="input" style="rhombus;whiteSpace=wrap;html=1;fontColor=#000000;fillColor=#ffffc0;strokeColor=#ff0000;" parent="1" vertex="1">
          <mxGeometry x="1800" y="2060" width="80" height="40" as="geometry" />
        </mxCell>
        <mxCell id="bFm6iSJfwCPPKSR6vB3Z-214" value="no" style="html=1;align=left;verticalAlign=bottom;endArrow=open;endSize=8;strokeColor=#ff0000;rounded=0;entryX=0.5;entryY=0;entryDx=0;entryDy=0;" parent="1" source="bFm6iSJfwCPPKSR6vB3Z-213" target="bFm6iSJfwCPPKSR6vB3Z-217" edge="1">
          <mxGeometry x="-0.1086" y="4" relative="1" as="geometry">
            <mxPoint x="1980" y="2210" as="targetPoint" />
            <mxPoint as="offset" />
          </mxGeometry>
        </mxCell>
        <mxCell id="bFm6iSJfwCPPKSR6vB3Z-215" value="yes" style="html=1;align=left;verticalAlign=top;endArrow=open;endSize=8;strokeColor=#ff0000;rounded=0;entryX=0.5;entryY=0;entryDx=0;entryDy=0;" parent="1" source="bFm6iSJfwCPPKSR6vB3Z-213" target="bFm6iSJfwCPPKSR6vB3Z-209" edge="1">
          <mxGeometry x="-0.0078" y="-3" relative="1" as="geometry">
            <mxPoint x="1840" y="2160" as="targetPoint" />
            <mxPoint as="offset" />
          </mxGeometry>
        </mxCell>
        <mxCell id="bFm6iSJfwCPPKSR6vB3Z-217" value="Console informed that saving is cancelled" style="rounded=1;whiteSpace=wrap;html=1;arcSize=40;fontColor=#000000;fillColor=#ffffc0;strokeColor=#ff0000;" parent="1" vertex="1">
          <mxGeometry x="1810" y="2195" width="120" height="40" as="geometry" />
        </mxCell>
        <mxCell id="bFm6iSJfwCPPKSR6vB3Z-218" value="" style="html=1;verticalAlign=bottom;endArrow=open;endSize=8;strokeColor=#ff0000;rounded=0;" parent="1" source="bFm6iSJfwCPPKSR6vB3Z-217" target="bFm6iSJfwCPPKSR6vB3Z-104" edge="1">
          <mxGeometry relative="1" as="geometry">
            <mxPoint x="1870" y="2295" as="targetPoint" />
          </mxGeometry>
        </mxCell>
        <mxCell id="bFm6iSJfwCPPKSR6vB3Z-221" value="User enter file name" style="rounded=1;whiteSpace=wrap;html=1;arcSize=40;fontColor=#000000;fillColor=#ffffc0;strokeColor=#ff0000;" parent="1" vertex="1">
          <mxGeometry x="2080" y="1530" width="120" height="40" as="geometry" />
        </mxCell>
        <mxCell id="bFm6iSJfwCPPKSR6vB3Z-222" value="" style="html=1;verticalAlign=bottom;endArrow=open;endSize=8;strokeColor=#ff0000;rounded=0;entryX=0.5;entryY=0;entryDx=0;entryDy=0;" parent="1" source="bFm6iSJfwCPPKSR6vB3Z-221" target="bFm6iSJfwCPPKSR6vB3Z-223" edge="1">
          <mxGeometry relative="1" as="geometry">
            <mxPoint x="2140" y="1630" as="targetPoint" />
          </mxGeometry>
        </mxCell>
        <mxCell id="bFm6iSJfwCPPKSR6vB3Z-223" value="File exist?" style="rhombus;whiteSpace=wrap;html=1;fontColor=#000000;fillColor=#ffffc0;strokeColor=#ff0000;" parent="1" vertex="1">
          <mxGeometry x="2120" y="1930" width="100" height="80" as="geometry" />
        </mxCell>
        <mxCell id="bFm6iSJfwCPPKSR6vB3Z-224" value="no" style="html=1;align=left;verticalAlign=bottom;endArrow=open;endSize=8;strokeColor=#ff0000;rounded=0;entryX=0.5;entryY=0;entryDx=0;entryDy=0;" parent="1" source="bFm6iSJfwCPPKSR6vB3Z-223" target="bFm6iSJfwCPPKSR6vB3Z-228" edge="1">
          <mxGeometry x="0.0361" y="-2" relative="1" as="geometry">
            <mxPoint x="2300" y="1990" as="targetPoint" />
            <mxPoint as="offset" />
          </mxGeometry>
        </mxCell>
        <mxCell id="bFm6iSJfwCPPKSR6vB3Z-225" value="yes" style="html=1;align=left;verticalAlign=top;endArrow=open;endSize=8;strokeColor=#ff0000;rounded=0;" parent="1" source="bFm6iSJfwCPPKSR6vB3Z-223" target="bFm6iSJfwCPPKSR6vB3Z-226" edge="1">
          <mxGeometry x="-0.0327" y="-7" relative="1" as="geometry">
            <mxPoint x="2160" y="2070" as="targetPoint" />
            <mxPoint y="1" as="offset" />
          </mxGeometry>
        </mxCell>
        <mxCell id="bFm6iSJfwCPPKSR6vB3Z-226" value="Console informed that meals have been loaded" style="rounded=1;whiteSpace=wrap;html=1;arcSize=40;fontColor=#000000;fillColor=#ffffc0;strokeColor=#ff0000;" parent="1" vertex="1">
          <mxGeometry x="2020" y="2170" width="120" height="65" as="geometry" />
        </mxCell>
        <mxCell id="bFm6iSJfwCPPKSR6vB3Z-227" value="" style="html=1;verticalAlign=bottom;endArrow=open;endSize=8;strokeColor=#ff0000;rounded=0;" parent="1" source="bFm6iSJfwCPPKSR6vB3Z-226" target="bFm6iSJfwCPPKSR6vB3Z-104" edge="1">
          <mxGeometry relative="1" as="geometry">
            <mxPoint x="2080" y="2295" as="targetPoint" />
          </mxGeometry>
        </mxCell>
        <mxCell id="bFm6iSJfwCPPKSR6vB3Z-228" value="Console informed that loading have been failed" style="rounded=1;whiteSpace=wrap;html=1;arcSize=40;fontColor=#000000;fillColor=#ffffc0;strokeColor=#ff0000;" parent="1" vertex="1">
          <mxGeometry x="2270" y="2195" width="120" height="40" as="geometry" />
        </mxCell>
        <mxCell id="bFm6iSJfwCPPKSR6vB3Z-229" value="" style="html=1;verticalAlign=bottom;endArrow=open;endSize=8;strokeColor=#ff0000;rounded=0;" parent="1" source="bFm6iSJfwCPPKSR6vB3Z-228" target="bFm6iSJfwCPPKSR6vB3Z-104" edge="1">
          <mxGeometry relative="1" as="geometry">
            <mxPoint x="2330" y="2295" as="targetPoint" />
          </mxGeometry>
        </mxCell>
        <mxCell id="bFm6iSJfwCPPKSR6vB3Z-234" value="User selected to exit meal plan manager (0)" style="rounded=1;whiteSpace=wrap;html=1;arcSize=40;fontColor=#000000;fillColor=#ffffc0;strokeColor=#ff0000;" parent="1" vertex="1">
          <mxGeometry x="3320" y="3010" width="120" height="40" as="geometry" />
        </mxCell>
        <mxCell id="bFm6iSJfwCPPKSR6vB3Z-235" value="" style="edgeStyle=orthogonalEdgeStyle;html=1;verticalAlign=bottom;endArrow=open;endSize=8;strokeColor=#ff0000;rounded=0;entryX=0.5;entryY=0;entryDx=0;entryDy=0;" parent="1" source="bFm6iSJfwCPPKSR6vB3Z-234" target="bFm6iSJfwCPPKSR6vB3Z-236" edge="1">
          <mxGeometry relative="1" as="geometry">
            <mxPoint x="3370" y="3090" as="targetPoint" />
          </mxGeometry>
        </mxCell>
        <mxCell id="bFm6iSJfwCPPKSR6vB3Z-236" value="Meal plan manager exited" style="rounded=1;whiteSpace=wrap;html=1;arcSize=40;fontColor=#000000;fillColor=#ffffc0;strokeColor=#ff0000;" parent="1" vertex="1">
          <mxGeometry x="3320" y="3110" width="120" height="40" as="geometry" />
        </mxCell>
        <mxCell id="bFm6iSJfwCPPKSR6vB3Z-237" value="" style="edgeStyle=orthogonalEdgeStyle;html=1;verticalAlign=bottom;endArrow=open;endSize=8;strokeColor=#ff0000;rounded=0;entryX=0.5;entryY=0;entryDx=0;entryDy=0;" parent="1" source="bFm6iSJfwCPPKSR6vB3Z-236" target="bFm6iSJfwCPPKSR6vB3Z-238" edge="1">
          <mxGeometry relative="1" as="geometry">
            <mxPoint x="3380" y="3210" as="targetPoint" />
          </mxGeometry>
        </mxCell>
        <mxCell id="bFm6iSJfwCPPKSR6vB3Z-240" style="edgeStyle=none;rounded=0;orthogonalLoop=1;jettySize=auto;html=1;exitX=1;exitY=0.5;exitDx=0;exitDy=0;" parent="1" source="bFm6iSJfwCPPKSR6vB3Z-238" target="bFm6iSJfwCPPKSR6vB3Z-239" edge="1">
          <mxGeometry relative="1" as="geometry" />
        </mxCell>
        <mxCell id="bFm6iSJfwCPPKSR6vB3Z-238" value="" style="ellipse;html=1;shape=endState;fillColor=#000000;strokeColor=#ff0000;" parent="1" vertex="1">
          <mxGeometry x="3365" y="3210" width="30" height="30" as="geometry" />
        </mxCell>
        <mxCell id="bFm6iSJfwCPPKSR6vB3Z-239" value="&lt;div&gt;&lt;span style=&quot;background-color: transparent; color: light-dark(rgb(0, 0, 0), rgb(255, 255, 255));&quot;&gt;User closed the meal plan entries&lt;/span&gt;&lt;/div&gt;" style="shape=note2;boundedLbl=1;whiteSpace=wrap;html=1;size=25;verticalAlign=top;align=center;" parent="1" vertex="1">
          <mxGeometry x="3650" y="3187.5" width="120" height="75" as="geometry" />
        </mxCell>
      </root>
    </mxGraphModel>
  </diagram>
</mxfile>
